# xmcd
#
# Track frame offsets: 
#        150
#        13999
#        31114
#        43747
#        56634
#        70956
#        99376
#        110055
#        126068
#        138424
#        153644
#        168243
#        184517
#        201301
#        221081
#        244689
#        261969
#        279297
#        305460
#        318649
#
# Disc length: 4512 seconds
#
# Revision: 1
# Processed by: cddbd v1.5.2PL0 Copyright (c) Steve Scherf et al.
# Submitted via: ExactAudioCopyFreeDBPlugin 1.0
#
DISCID=29119e14
DTITLE=Bobby Womack - Facts of Life - I Don't Know What The World Is C
DTITLE=oming To
DYEAR=2004
DGENRE=Soul
TTITLE0=Nobody Wants You When You are Down and Out
TTITLE1=I'm Through Trying to Prove My Love to You
TTITLE2=If You Can't Give Her Love, Give Her Up
TTITLE3=That's Heaven to Me
TTITLE4=Medley:  Holdin' on to My Baby's Love - Nobody
TTITLE5=Medley:  Facts of Life - He'll Be There When the Sun Goes Down
TTITLE6=Can't Stop a Man in Love
TTITLE7=The Look of Love
TTITLE8=Natural Man
TTITLE9=All Along the Watchtower
TTITLE10=Medley:  Interlude No. 1 - I Don't Know
TTITLE11=Superstar
TTITLE12=If You Want My Love, Put Something Down on It
TTITLE13=Git It
TTITLE14=What's Your World
TTITLE15=Check it Out
TTITLE16=Interlude No. 2
TTITLE17=Jealous Love
TTITLE18=It's All Over Now (ft Bill Withers)
TTITLE19=Yes, Jesus Loves Me
EXTD=
EXTT0=
EXTT1=
EXTT2=
EXTT3=
EXTT4=
EXTT5=
EXTT6=
EXTT7=
EXTT8=
EXTT9=
EXTT10=
EXTT11=
EXTT12=
EXTT13=
EXTT14=
EXTT15=
EXTT16=
EXTT17=
EXTT18=
EXTT19=
PLAYORDER=
